<svg width="26" height="26" viewBox="0 0 26 26" fill="none" xmlns="http://www.w3.org/2000/svg">
<g clip-path="url(#clip0)">
<path d="M24.453 16.8C24.453 17.4763 24.1843 18.1249 23.7061 18.6031C23.2279 19.0813 22.5793 19.35 21.903 19.35H6.6L1.5 24.45V4.05C1.5 3.3737 1.76866 2.7251 2.24688 2.24688C2.7251 1.76866 3.3737 1.5 4.05 1.5H21.9C22.5763 1.5 23.2249 1.76866 23.7031 2.24688C24.1813 2.7251 24.45 3.3737 24.45 4.05L24.453 16.8Z" stroke="#F4E236" stroke-width="3" stroke-linecap="round" stroke-linejoin="round"/>
<path d="M8.36719 12.6992C9.19561 12.6992 9.86719 12.0276 9.86719 11.1992C9.86719 10.3708 9.19561 9.69922 8.36719 9.69922C7.53876 9.69922 6.86719 10.3708 6.86719 11.1992C6.86719 12.0276 7.53876 12.6992 8.36719 12.6992Z" fill="#4E54FF"/>
<path d="M13.3672 12.6992C14.1956 12.6992 14.8672 12.0276 14.8672 11.1992C14.8672 10.3708 14.1956 9.69922 13.3672 9.69922C12.5388 9.69922 11.8672 10.3708 11.8672 11.1992C11.8672 12.0276 12.5388 12.6992 13.3672 12.6992Z" fill="#4E54FF"/>
<path d="M18.3672 12.6992C19.1956 12.6992 19.8672 12.0276 19.8672 11.1992C19.8672 10.3708 19.1956 9.69922 18.3672 9.69922C17.5388 9.69922 16.8672 10.3708 16.8672 11.1992C16.8672 12.0276 17.5388 12.6992 18.3672 12.6992Z" fill="#4E54FF"/>
</g>
<defs>
<clipPath id="clip0">
<rect width="25.953" height="25.953" fill="white"/>
</clipPath>
</defs>
</svg>
