<svg width="32" height="32" viewBox="0 0 32 32" fill="none" xmlns="http://www.w3.org/2000/svg">
<g clip-path="url(#clip0)">
<path d="M30.6478 8.74252L27.8098 11.5805C27.7411 11.6494 27.6595 11.7041 27.5697 11.7414C27.4799 11.7787 27.3836 11.7979 27.2863 11.7979C27.189 11.7979 27.0927 11.7787 27.0029 11.7414C26.913 11.7041 26.8314 11.6494 26.7628 11.5805L19.9308 4.74752C19.8619 4.67886 19.8072 4.59728 19.7699 4.50744C19.7326 4.41761 19.7134 4.32129 19.7134 4.22402C19.7134 4.12675 19.7326 4.03043 19.7699 3.9406C19.8072 3.85076 19.8619 3.76918 19.9308 3.70052L22.7678 0.86352C23.3228 0.310511 24.0743 0 24.8578 0C25.6413 0 26.3928 0.310511 26.9478 0.86352L30.6478 4.56352C30.9228 4.83758 31.141 5.16323 31.2899 5.52179C31.4387 5.88036 31.5154 6.26478 31.5154 6.65302C31.5154 7.04126 31.4387 7.42569 31.2899 7.78425C31.141 8.14281 30.9228 8.46846 30.6478 8.74252V8.74252ZM17.4968 6.13852L1.32679 22.3045L0.0217892 29.7845C-0.0187715 30.0182 -0.00254064 30.2582 0.0691129 30.4843C0.140766 30.7104 0.265741 30.9159 0.433495 31.0836C0.601249 31.2512 0.806863 31.3761 1.03299 31.4476C1.25912 31.5191 1.49914 31.5352 1.73279 31.4945L9.21279 30.1835L25.3788 14.0185C25.4477 13.9499 25.5024 13.8683 25.5397 13.7784C25.577 13.6886 25.5962 13.5923 25.5962 13.495C25.5962 13.3977 25.577 13.3014 25.5397 13.2116C25.5024 13.1218 25.4477 13.0402 25.3788 12.9715L18.5448 6.13852C18.4048 5.99947 18.2156 5.92143 18.0183 5.92143C17.821 5.92143 17.6317 5.99947 17.4918 6.13852H17.4968ZM7.63679 20.9195C7.55627 20.8397 7.49236 20.7448 7.44874 20.6402C7.40513 20.5356 7.38267 20.4234 7.38267 20.31C7.38267 20.1967 7.40513 20.0845 7.44874 19.9798C7.49236 19.8752 7.55627 19.7803 7.63679 19.7005L17.1168 10.2205C17.1966 10.1393 17.2916 10.0746 17.3965 10.0303C17.5014 9.986 17.6141 9.96292 17.7279 9.96239C17.8418 9.96187 17.9547 9.98391 18.06 10.0272C18.1653 10.0706 18.2609 10.1343 18.3415 10.2149C18.422 10.2954 18.4857 10.3911 18.5291 10.4964C18.5724 10.6017 18.5944 10.7145 18.5939 10.8284C18.5934 10.9422 18.5703 11.0549 18.526 11.1598C18.4817 11.2647 18.417 11.3597 18.3358 11.4395L8.85579 20.9195C8.77602 21 8.68108 21.0639 8.57647 21.1076C8.47185 21.1512 8.35963 21.1736 8.24629 21.1736C8.13295 21.1736 8.02073 21.1512 7.91611 21.1076C7.8115 21.0639 7.71656 21 7.63679 20.9195V20.9195ZM5.41479 26.0945H8.36879V28.3295L4.39779 29.0295L2.48379 27.1125L3.18379 23.1415H5.41479V26.0945Z" fill="#4E54FF"/>
</g>
<defs>
<clipPath id="clip0">
<rect width="31.518" height="31.518" fill="white"/>
</clipPath>
</defs>
</svg>
