<svg xmlns="http://www.w3.org/2000/svg" width="19.308" height="24.15" viewBox="0 0 19.308 24.15">
  <g id="Icon_ionic-ios-notifications" data-name="Icon ionic-ios-notifications" transform="translate(-6.761 -3.93)">
    <path id="Trazado_1" data-name="Trazado 1" d="M17.513,31.535c1.877,0,2.9-1.328,2.9-3.2H14.6C14.6,30.207,15.63,31.535,17.513,31.535Z" transform="translate(-1.11 -3.455)" fill="#ffe1e1"/>
    <path id="Trazado_2" data-name="Trazado 2" d="M25.825,21.815c-.93-1.225-2.758-1.944-2.758-7.43,0-5.631-2.487-7.895-4.8-8.438-.217-.054-.374-.127-.374-.356V5.415a1.473,1.473,0,1,0-2.945,0V5.59c0,.223-.157.3-.374.356-2.324.549-4.8,2.807-4.8,8.438,0,5.487-1.829,6.2-2.758,7.43a1.2,1.2,0,0,0,.96,1.919H24.871A1.2,1.2,0,0,0,25.825,21.815Z" transform="translate(0 0)" fill="#ffe1e1"/>
  </g>
</svg>
