<svg xmlns="http://www.w3.org/2000/svg" width="31.518" height="31.518" viewBox="0 0 31.518 31.518">
  <path id="Icon_awesome-pencil-alt" data-name="Icon awesome-pencil-alt" d="M30.651,8.748l-2.838,2.838a.739.739,0,0,1-1.047,0L19.934,4.753a.739.739,0,0,1,0-1.047L22.771.869a2.961,2.961,0,0,1,4.18,0l3.7,3.7A2.95,2.95,0,0,1,30.651,8.748ZM17.5,6.144,1.33,22.31.025,29.79A1.479,1.479,0,0,0,1.736,31.5l7.48-1.311L25.382,14.024a.739.739,0,0,0,0-1.047L18.548,6.144a.747.747,0,0,0-1.053,0ZM7.64,20.925a.858.858,0,0,1,0-1.219l9.48-9.48a.862.862,0,1,1,1.219,1.219l-9.48,9.48a.858.858,0,0,1-1.219,0ZM5.418,26.1H8.372v2.235l-3.971.7L2.487,27.118l.7-3.971H5.418Z" transform="translate(-0.002 -0.005)" fill="#ff3131"/>
</svg>
